<svg width="195" height="23" viewBox="0 0 195 23" fill="none" xmlns="http://www.w3.org/2000/svg">
<g clip-path="url(#clip0_125_2)">
<path fill-rule="evenodd" clip-rule="evenodd" d="M22.4079 22.5303V0L7.23878 0.0118601C7.50365 0.292549 7.59063 0.37557 7.89504 0.826254C9.05733 2.62504 8.82803 5.05636 7.4404 6.57841C6.92251 7.11607 6.5074 7.48768 5.55859 7.87511C5.64557 7.90674 5.72859 7.93046 5.80766 7.95813L6.19904 8.0965C8.74106 9.03741 10.7691 11.3304 11.2949 14.1768C11.6705 15.9835 11.3187 17.8613 10.6505 19.2608C10.2829 20.0001 9.91125 20.4903 9.41708 21.0477C9.17197 21.3561 8.98617 21.5419 8.6778 21.8463C8.47618 22.0361 8.02945 22.3879 7.81597 22.5224H22.4079V22.5303Z" fill="white"/>
<path fill-rule="evenodd" clip-rule="evenodd" d="M0 22.5303H6.18703C6.29772 22.4907 6.44004 22.4275 6.87886 22.1863C10.6701 19.9606 10.9785 15.094 8.56695 12.3543C7.53908 11.1446 5.91029 10.0692 3.62524 10.089L3.63315 7.59442C4.06406 7.59442 4.66498 7.68535 5.01287 7.75256C7.58257 6.75631 8.40882 3.70431 6.82747 1.53786C5.95378 0.359757 4.88637 0.134415 4.44359 0H0V22.5303Z" fill="white"/>
<path d="M47.302 22.471H30.8164V0.0593262H48.5789C50.3302 0.0593262 51.5756 0.423036 52.39 1.17418C53.2004 1.92136 53.6115 3.11133 53.6115 4.70454V7.19911C53.6115 8.48001 53.2716 9.46044 52.6034 10.1207C52.2911 10.429 51.8997 10.682 51.4332 10.8797C51.9155 11.1169 52.3306 11.4292 52.6667 11.8127C53.3743 12.6113 53.7341 13.6985 53.7341 15.0466V17.7823C53.7341 19.3636 53.1688 20.5615 52.0579 21.3443C50.9825 22.0994 49.4289 22.467 47.3059 22.467L47.302 22.471ZM35.3826 18.5532H47.2624C48.0096 18.5532 48.5315 18.4188 48.7687 18.1618C48.9426 17.976 49.1442 17.5372 49.1442 16.5053V14.7224C49.1442 13.6747 48.9347 13.228 48.7568 13.0382C48.5156 12.7773 47.9978 12.639 47.2585 12.639H35.3786V18.5571L35.3826 18.5532ZM35.3826 8.85953H47.2624C48.1757 8.85953 48.5236 8.66977 48.6501 8.55907C48.8556 8.37722 48.9624 7.98979 48.9624 7.44422V5.29359C48.9624 4.74802 48.8635 4.3685 48.6698 4.19851C48.5512 4.09176 48.2112 3.91782 47.2624 3.91782H35.3826V8.85953V8.85953Z" fill="white"/>
<path d="M85.128 22.471H80.0676L77.328 17.1972H63.424L60.6882 22.471H56.0391L68.2747 0.0593262H72.6828L85.128 22.467V22.471ZM65.4402 13.485H75.3592L70.3898 4.05223L65.4402 13.485Z" fill="white"/>
<path d="M96.0503 22.471H91.5039V12.8208L80.0312 0.0593262H85.7913L93.9353 9.34975L101.743 0.0593262H107.424L96.0503 12.7378V22.467V22.471Z" fill="white"/>
<path d="M136.668 22.471H128.883L115.205 13.2675V22.471H110.639V0.0593262H115.205V8.80418L127.927 0.0593262H134.936L118.668 10.8046L136.664 22.471H136.668Z" fill="white"/>
<path d="M165.722 22.471H160.661L157.926 17.1972H144.022L141.286 22.471H136.637L148.868 0.0593262H153.276L165.722 22.467V22.471ZM146.034 13.485H155.953L150.984 4.05223L146.034 13.485Z" fill="white"/>
<path d="M195 22.471H188.165L179.448 14.1175H173.826V22.471H169.26V0.0593262H187.022C188.75 0.0593262 190.035 0.434896 190.829 1.17418C191.64 1.92136 192.051 3.11133 192.051 4.70454V9.48811C192.051 11.0695 191.64 12.2515 190.829 12.9987C190.031 13.738 188.75 14.1096 187.022 14.1096H185.204L194.996 22.4631L195 22.471ZM173.826 10.3618H185.623C186.611 10.3618 186.975 10.1483 187.101 10.0179C187.327 9.79252 187.445 9.32207 187.445 8.66186V5.5387C187.445 4.87453 187.323 4.40013 187.089 4.17083C186.927 4.00874 186.54 3.81898 185.619 3.81898H173.822V10.3618H173.826Z" fill="white"/>
</g>
<defs>
<clipPath id="clip0_125_2">
<rect width="195" height="22.5303" fill="white"/>
</clipPath>
</defs>
</svg>
